<svg width="476" height="97" viewBox="0 0 476 97" fill="none" xmlns="http://www.w3.org/2000/svg">
<path d="M0.8 12C10.1333 9 19.5667 7.5 29.1 7.5C38.6333 7.5 45.9667 9.1 51.1 12.3C52.3 15.9 52.9 19.3333 52.9 22.6C52.9 30.2667 49.7333 36.7 43.4 41.9C37.0667 47.0333 28.9 50.7333 18.9 53L16.5 75.4L6.5 76.4L0.8 12ZM33.6 25.5C33.6 20.3667 31.5 16.5333 27.3 14C26.1 14 24.6333 14.2333 22.9 14.7L19.6 46.2C23.9333 43.8 27.3333 40.7 29.8 36.9C32.3333 33.1 33.6 29.3 33.6 25.5ZM74.075 21.1C90.2083 27.5667 98.275 35.6 98.275 45.2C98.275 50.2 96.8417 53.8333 93.975 56.1C91.175 58.3 85.9417 59.4 78.275 59.4C73.4083 59.4 69.4083 59.0333 66.275 58.3C65.0083 61.4333 64.375 64.7 64.375 68.1C67.375 68.5 70.775 68.7 74.575 68.7C81.5083 68.7 88.0417 67.6 94.175 65.4L97.175 75.1C92.3083 76.6333 86.8417 77.4 80.775 77.4C69.975 77.4 62.0417 75.4333 56.975 71.5C55.9083 66.7667 55.375 62.3 55.375 58.1C55.375 49.7 57.2083 42.1333 60.875 35.4C64.6083 28.6667 69.0083 23.9 74.075 21.1ZM68.275 53.6C69.1417 53.6667 71.3083 53.7 74.775 53.7C78.3083 53.7 82.3417 53.2333 86.875 52.3C87.075 51.0333 87.175 49.7667 87.175 48.5C87.175 44.5 86.075 40.6667 83.875 37C77.275 41.4 72.075 46.9333 68.275 53.6ZM118.893 76.5L114.593 36.1L105.393 37.4L104.793 27.1L113.593 26.7L112.093 12.7L136.993 9.4L134.993 25.6L144.893 25.1L144.593 31.8L133.993 33.3L128.793 75.6L118.893 76.5ZM185.159 42.1C180.626 42.1 177.193 43.7 174.859 46.9C172.526 50.0333 170.826 55.8333 169.759 64.3L168.359 75.6L158.459 76.5L153.359 26.9L174.759 23.6L172.759 39.6H173.459C178.793 28.1333 185.593 22.0333 193.859 21.3L191.059 42.6C188.593 42.2667 186.626 42.1 185.159 42.1ZM242.632 56.6C242.632 63.8667 241.032 69.1667 237.832 72.5C234.699 75.7667 228.865 77.4 220.332 77.4C211.799 77.4 205.132 75.4667 200.332 71.6C199.332 66.8 198.832 62 198.832 57.2C198.832 52.4 199.499 47.9 200.832 43.7C202.232 39.4333 203.965 35.8 206.032 32.8C210.365 26.6667 214.232 22.7667 217.632 21.1C224.032 24.3667 229.665 28.8 234.532 34.4C239.932 40.5333 242.632 47.9333 242.632 56.6ZM231.032 53.9C231.032 47.5667 229.699 41.7667 227.032 36.5C221.499 39.4333 216.932 43.9 213.332 49.9C209.732 55.9 207.932 61.9667 207.932 68.1C210.065 68.5 213.132 68.7 217.132 68.7C221.132 68.7 225.232 68 229.432 66.6C230.499 62.5333 231.032 58.3 231.032 53.9ZM295.241 22.7C296.507 22.7 297.741 22.9 298.941 23.3C301.341 26.1667 303.274 30.5 304.741 36.3C306.274 42.0333 307.041 48.4667 307.041 55.6C307.041 62.6667 305.474 68.0667 302.341 71.8C299.274 75.5333 293.907 77.4 286.241 77.4C280.774 77.4 275.607 76.2667 270.741 74L268.041 95.8L258.741 96.7L255.641 26.9L277.041 23.6L274.841 41.2H275.541C278.207 35.4667 281.241 30.9667 284.641 27.7C288.041 24.3667 291.574 22.7 295.241 22.7ZM282.341 71.2C284.807 71.2 286.907 70.7333 288.641 69.8C289.641 64.6667 290.141 59.8333 290.141 55.3C290.141 50.7 289.941 46.4667 289.541 42.6C289.141 38.7333 288.674 36.0667 288.141 34.6C286.674 35.2 285.574 35.7 284.841 36.1C284.107 36.4333 282.941 37.3667 281.341 38.9C279.741 40.3667 278.441 42.1333 277.441 44.2C274.774 49.8 272.807 57.6 271.541 67.6C274.541 70 278.141 71.2 282.341 71.2ZM364.116 56.6C364.116 63.8667 362.516 69.1667 359.316 72.5C356.183 75.7667 350.35 77.4 341.816 77.4C333.283 77.4 326.616 75.4667 321.816 71.6C320.816 66.8 320.316 62 320.316 57.2C320.316 52.4 320.983 47.9 322.316 43.7C323.716 39.4333 325.45 35.8 327.516 32.8C331.85 26.6667 335.716 22.7667 339.116 21.1C345.516 24.3667 351.15 28.8 356.016 34.4C361.416 40.5333 364.116 47.9333 364.116 56.6ZM352.516 53.9C352.516 47.5667 351.183 41.7667 348.516 36.5C342.983 39.4333 338.416 43.9 334.816 49.9C331.216 55.9 329.416 61.9667 329.416 68.1C331.55 68.5 334.616 68.7 338.616 68.7C342.616 68.7 346.716 68 350.916 66.6C351.983 62.5333 352.516 58.3 352.516 53.9ZM381.225 76.5L376.125 6.7L397.525 3.4L391.125 75.6L381.225 76.5ZM416.577 76.5L411.477 27L432.877 23.7L426.477 75.6L416.577 76.5ZM414.577 15.9C412.777 14.0333 411.877 11.8333 411.877 9.3C411.877 6.76666 412.777 4.59999 414.577 2.79999C416.443 0.933327 418.643 -5.96046e-06 421.177 -5.96046e-06C423.71 -5.96046e-06 425.877 0.933327 427.677 2.79999C429.543 4.59999 430.477 6.76666 430.477 9.3C430.477 11.8333 429.543 14.0333 427.677 15.9C425.877 17.7 423.71 18.6 421.177 18.6C418.643 18.6 416.443 17.7 414.577 15.9ZM445.828 42.1C445.828 33.5667 450.328 25.7667 459.328 18.7L475.728 29.7C468.328 34.4333 464.628 39.4 464.628 44.6C464.628 47.3333 466.128 50.9 469.128 55.3C472.195 59.7 473.728 63.1333 473.728 65.6C473.728 74.3333 467.728 81.0667 455.728 85.8L451.328 79.9C456.595 77.0333 459.228 73.8667 459.228 70.4C459.228 67.1333 456.995 63 452.528 58C450.861 56.1333 449.328 53.7667 447.928 50.9C446.528 48.0333 445.828 45.1 445.828 42.1Z" fill="black"/>
</svg>
